o Arabic8
v 0.023925781249999962 0.0001 0.774222227406761
v 0.073657226562499956 0.0001 0.716202207875511
v 0.073657226562499956 0.0001 0.711417051625511
v 0.060839843749999956 0.0001 0.711417051625511
v 0.023925781249999962 0.0001 0.4933506453755111
v 0.060839843749999956 0.0001 0.4933506453755111
v -0.013073730468750038 0.0001 0.77114605553176108
v 0.0034179687499999614 0.0001 0.75943951256301112
v 0.0034179687499999614 0.0001 0.7232090438130111
v -0.0051696777343750383 0.0001 0.72987408026780787
v -0.014526367187500036 0.0001 0.73209576256301112
v -0.021447753580287134 0.0001 0.7304081352772922
v -0.027172851562500037 0.0001 0.7253452742817611
v -0.031018066406250037 0.0001 0.716138115746042
v -0.011920164874754884 0.0001 0.55786480292405793
v 0.0034179687499999614 0.0001 0.4933506453755111
v -0.073657226562500039 0.0001 0.4933506453755111
v -0.073657226562500039 0.0001 0.530264707875511
v -0.043750000000000039 0.0001 0.530264707875511
v -0.024096679687500035 0.0001 0.62460064537551108
v -0.030249023437500036 0.0001 0.66984600279208129
v -0.032299804687500037 0.0001 0.702017637563011
v -0.065795898437500042 0.0001 0.6454502547505111
v -0.069769286457449231 0.0001 0.67941631659593282
v -0.071093750000000039 0.0001 0.70816998131301112
v -0.067953491210937536 0.0001 0.7383121880116672
v -0.064028167724609411 0.0001 0.74971431944247191
v -0.058532714843750035 0.0001 0.7586704695942611
v -0.044454955402761738 0.0001 0.77027019582416711
v -0.036278533202130384 0.0001 0.77317013194512441
v -0.027343750000000038 0.0001 0.77413677818801108
v -0.34468747661379562 0.0001 0.6943833182358865
v -0.29495603130129566 0.0001 0.63636329870463648
v -0.29495603130129566 0.0001 0.6315781424546365
v -0.30777341411379566 0.0001 0.6315781424546365
v -0.34468747661379562 0.0001 0.41351173620463655
v -0.30777341411379566 0.0001 0.41351173620463655
v -0.57216149661588811 0.0001 0.48046814323853987
v -0.55566979739713818 0.0001 0.46876160026978986
v -0.55566979739713818 0.0001 0.43253113151978989
v -0.56425744388151322 0.0001 0.4391961679745866
v -0.57361413333463818 0.0001 0.44141785026978986
v -0.58053551972742523 0.0001 0.43973022298407094
v -0.58626061770963811 0.0001 0.43466736198853989
v -0.59010583255338811 0.0001 0.425460203452821
v -0.57100793053294863 0.0001 0.26718689063083667
v -0.55566979739713818 0.0001 0.20267273308228989
v -0.63274499270963813 0.0001 0.20267273308228989
v -0.63274499270963813 0.0001 0.2395867955822899
v -0.60283776614713813 0.0001 0.2395867955822899
v -0.58318444583463813 0.0001 0.33392273308228987
v -0.5893367895846382 0.0001 0.37916809049886008
v -0.59138757083463811 0.0001 0.4113397252697899
v -0.62488366458463818 0.0001 0.35477234245728989
v -0.62885705260458735 0.0001 0.38873840430271167
v -0.63018151614713813 0.0001 0.41749206901978986
v -0.62704125735807559 0.0001 0.44763427571844594
v -0.62311593387174757 0.0001 0.4590364071492507
v -0.61762048099088818 0.0001 0.46799255730103989
v -0.60354272154989985 0.0001 0.47959228353094596
v -0.59536629934926855 0.0001 0.48249221965190314
v -0.58643151614713818 0.0001 0.48345886589478987
v -0.709062370812065 0.0001 0.14039306119084355
v -0.70009020382120379 0.0001 0.137060546875
v -0.70009020382120379 0.0001 0.10185546875
v -0.7098314147587037 0.0001 0.10407714843749999
v -0.71790636593057866 0.0001 0.10196228027343751
v -0.72469957882120373 0.0001 0.09561767578125
v -0.72931383663370375 0.0001 0.083590695634484277
v -0.70878466085112757 0.0001 0.016940303705632688
v -0.70009020382120379 0.0001 0.0158935546875
v -0.70009020382120379 0.0001 -0.015039062499999999
v -0.71606920772745375 0.0001 0.020422363281249998
v -0.72202929008334049 0.0001 0.02702331412583589
v -0.71314257100737755 0.0001 -0.018350224941968918
v -0.72675036007120375 0.0001 0.037426757812499996
v -0.72324694210245377 0.0001 -0.02657470703125
v -0.72982653194620373 0.0001 0.050329587236046788
v -0.72971971977084038 0.0001 -0.0401824977248907
v -0.73085192257120379 0.0001 0.0644287109375
v -0.73187731319620375 0.0001 -0.059643554687499996
v -0.71356981710112755 0.0001 -0.0983734130859375
v -0.70009020382120379 0.0001 -0.1025390625
v -0.70009020382120379 0.0001 -0.14150390624999998
v -0.72358873897745379 0.0001 -0.089978027343749989
v -0.72980516931555339 0.0001 -0.0771392828784883
v -0.720341668013028 0.0001 -0.13791503254324197
v -0.73563707882120377 0.0001 -0.13193359375
v -0.75110338611110206 0.0001 -0.12003478743135929
v -0.76229723507120373 0.0001 -0.10382080078125
v -0.7690904466579771 0.0001 -0.0836761487647891
v -0.7713548522587037 0.0001 -0.0599853515625
v -0.769218620486102 0.0001 -0.037896732427179808
v -0.7628099303837037 0.0001 -0.019140624999999998
v -0.754692253298602 0.0001 -0.0068786673247814168
v -0.74332750850870377 0.0001 0.0039306640624999995
v -0.75469225313562072 0.0001 0.014921565912663935
v -0.76280992907985212 0.0001 0.029266352206468577
v -0.76768053536350944 0.0001 0.046965022943913928
v -0.76930407100870379 0.0001 0.068017578124999992
v -0.76833742623265011 0.0001 0.084893797850236291
v -0.76543749255641458 0.0001 0.099633786454796772
v -0.7606042709578863 0.0001 0.11223754589445889
v -0.7538377624149537 0.0001 0.12270507812499999
v -0.74583223787766051 0.0001 0.13092955956235527
v -0.73728197530425255 0.0001 0.13680419400334357
v -0.7281869744502576 0.0001 0.14032897753641008
v -0.71854723507120377 0.0001 0.14150390624999998
v -0.57969369278243166 0.0001 -0.47355001796884705
v -0.57969369278243166 0.0001 -0.29559400905771427
v -0.57969369278243166 0.0001 -0.35426290859384707
v -0.57969369278243166 0.0001 -0.38912618984384706
v -0.6145569740324317 0.0001 -0.19276388515634707
v -0.59114388809493168 0.0001 -0.19276388515634707
v -0.52022103653243168 0.0001 -0.36947286953134706
v -0.52022103653243168 0.0001 -0.38912618984384706
v -0.55577592239668949 0.0001 -0.35426290859384707
v -0.6145569740324317 0.0001 -0.47355001796884705
v -0.6145569740324317 0.0001 -0.38912618984384706
v -0.63386849746993168 0.0001 -0.38912618984384706
v -0.63386849746993168 0.0001 -0.35426290859384707
v -0.6145569740324317 0.0001 -0.35426290859384707
v -0.29594404609126684 0.0001 -0.43154601534649856
v -0.29594404609126684 0.0001 -0.57373351534649852
v -0.30786421112900314 0.0001 -0.57928772108450655
v -0.31696455390376682 0.0001 -0.5887725778464985
v -0.32273237421361439 0.0001 -0.60265807980492836
v -0.30495893769150312 0.0001 -0.66811217680394774
v -0.29389326484126682 0.0001 -0.67285460909649852
v -0.29389326484126682 0.0001 -0.71233214815899859
v -0.3132047882787668 0.0001 -0.66072082003399857
v -0.32179243313332734 0.0001 -0.64371642615467428
v -0.31337568671626681 0.0001 -0.70891417940899859
v -0.326556226426714 0.0001 -0.701779168339522
v -0.32465498359126682 0.0001 -0.62141417940899857
v -0.3384123078100168 0.0001 -0.69165343722149852
v -0.34830305357647778 0.0001 -0.67926329854697109
v -0.35558760077876683 0.0001 -0.66533507784649859
v -0.36161176744101287 0.0001 -0.64452819438472519
v -0.3636198273412668 0.0001 -0.6220977731589985
v -0.36173994126913783 0.0001 -0.59996642941430334
v -0.35610029609126681 0.0001 -0.58244933565899859
v -0.34670088072491523 0.0001 -0.56809386821285024
v -0.33354170234126684 0.0001 -0.5554473825339985
v -0.33354170234126684 0.0001 -0.46794738253399853
v -0.36652510077876682 0.0001 -0.43154601534649856
v -0.36652510077876682 0.0001 -0.46794738253399853
v -0.044721984863281286 0.0001 -0.66310080191526277
v -0.0092822545208037267 0.0001 -0.67393148908797373
v -0.010339355468750037 0.0001 -0.69138448940995811
v -0.047253417968750037 0.0001 -0.69018820034745809
v -0.04964599609375004 0.0001 -0.522536833159958
v -0.027258300781250036 0.0001 -0.49194601284745809
v -0.010483551025390663 0.0001 -0.51327628092314781
v 0.0044647216796874604 0.0001 -0.53608054215494272
v 0.017586517333984336 0.0001 -0.56035879849862036
v 0.028881835937499961 0.0001 -0.586111051909958
v 0.037966156005859335 0.0001 -0.61227987759686731
v 0.044454956054687453 0.0001 -0.63780783316526279
v 0.048348236083984329 0.0001 -0.662694917637256
v 0.049645996093749957 0.0001 -0.686941130034958
v 0.047915649414062456 0.0001 -0.70930746434662217
v 0.042724609374999958 0.0001 -0.73197286831620811
v 0.034713745117187458 0.0001 -0.75160482371631743
v 0.024523925781249959 0.0001 -0.76487081753495811
v 0.013031006511300763 0.0001 -0.7724330720904814
v 0.0011108398437499611 0.0001 -0.774953825347458
v -0.010040279943496025 0.0001 -0.77264669252965323
v -0.021276855468750036 0.0001 -0.76572530972245811
v -0.031573483068496028 0.0001 -0.75369832957569238
v -0.039904785156250039 0.0001 -0.736074430816208
v -0.04541625715792183 0.0001 -0.71439169286224713
v -0.0076256752014160524 0.0001 -0.71650656037438387
v -0.0042335748672485728 0.0001 -0.72535055410755511
v 0.00051536560058589866 0.0001 -0.73171652065995807
v 0.0055610425653867031 0.0001 -0.72375906387516953
v 0.0091650969348847488 0.0001 -0.71355856363136061
v 0.01204833984374996 0.0001 -0.68642843472245807
v 0.010552979167550764 0.0001 -0.66211813589963786
v 0.0060668945312499604 0.0001 -0.64114034878495807
v -0.0061109542846680071 0.0001 -0.660537321441208
v -0.00095228953287009315 0.0001 -0.65000570914182543
v -0.037127685546875039 0.0001 -0.639602262847458
v -0.024427794758230485 0.0001 -0.61900900634411449
v -0.0065795898437500389 0.0001 -0.600637419097458
v -0.025559997558593787 0.0001 -0.558767301909958
v 0.28482001581141653 0.0001 -0.41390665598862647
v 0.35523017206141655 0.0001 -0.41390665598862647
v 0.35523017206141655 0.0001 -0.45064982005112647
v 0.32634299554774465 0.0001 -0.45064982005112647
v 0.35337966241786184 0.0001 -0.68990763255112642
v 0.31694892206141656 0.0001 -0.6946927888011265
v 0.55713979890269161 0.0001 -0.32527473443221355
v 0.58329727195368086 0.0001 -0.30050715024150965
v 0.59015256904230384 0.0001 -0.31538398491717934
v 0.56648580573663976 0.0001 -0.33794257866717931
v 0.59675552390680586 0.0001 -0.37601021083571073
v 0.59015256904230384 0.0001 -0.36033027397967932
v 0.61382467292413978 0.0001 -0.33794257866717931
v 0.62350179727354016 0.0001 -0.35101630913592935
v 0.63065816901788985 0.0001 -0.36562812554217933
v 0.63508016804397971 0.0001 -0.38271797189988255
v 0.63655416511163976 0.0001 -0.40322578179217933
v 0.63482382038772966 0.0001 -0.42486579774446842
v 0.62963277839288978 0.0001 -0.44501044976092929
v 0.62166464037426683 0.0001 -0.461779855029062
v 0.6116029932366398 0.0001 -0.47329414116717927
v 0.60053732103832935 0.0001 -0.4799591776219761
v 0.58955709479913976 0.0001 -0.48218085991717929
v 0.57978918146972469 0.0001 -0.48066413530647811
v 0.57099325332955386 0.0001 -0.4761139627782261
v 0.5631693094007385 0.0001 -0.46853034428820067
v 0.55631734870538985 0.0001 -0.45791328179217933
v 0.54676840111778047 0.0001 -0.43210761968545675
v 0.54358541511163982 0.0001 -0.40322578179217933
v 0.54501669082955384 0.0001 -0.38350837847717167
v 0.54931051276788978 0.0001 -0.36673896538592932
v 0.55646689005360872 0.0001 -0.35189216753967156
v 0.58316909877748158 0.0001 -0.37660835275925753
v 0.5808412744866398 0.0001 -0.39912421929217934
v 0.58316909877748169 0.0001 -0.42339179872103094
v 0.5860788784076173 0.0001 -0.43193672027006808
v 0.59015256904230384 0.0001 -0.43808906304217932
v 0.59675552390680575 0.0001 -0.42305000249795671
v 0.59895650886163976 0.0001 -0.39980781304217933
v 0.62317068085821281 0.0001 -0.3254990391203767
v 0.59688370001667113 0.0001 -0.29956921024747252
v 0.59912740729913982 0.0001 -0.27735908257342934
v 0.59688370001667113 0.0001 -0.25531986246384741
v 0.58101217292413976 0.0001 -0.27906539666034336
v 0.58363573096857335 0.0001 -0.25493667351581212
v 0.55046407852486645 0.0001 -0.31068428179748414
v 0.59015256904230384 0.0001 -0.23933418022967934
v 0.54645864558105284 0.0001 -0.29417121978510224
v 0.54512350104913976 0.0001 -0.27573554741717932
v 0.54672567390070226 0.0001 -0.25454414638258571
v 0.55153219245538976 0.0001 -0.23506171929217934
v 0.55905172500924138 0.0001 -0.21893319489933608
v 0.56879293464288982 0.0001 -0.20780341851092932
v 0.579751797599503 0.0001 -0.20133064279832003
v 0.59092428229913985 0.0001 -0.19917304741717934
v 0.60049993574202 0.0001 -0.2006096633853024
v 0.60906087930479025 0.0001 -0.20491950998582004
v 0.61660711323192274 0.0001 -0.21210258526295481
v 0.6231386377678898 0.0001 -0.22215888726092931
v 0.63217489265070237 0.0001 -0.24691780882455464
v 0.63518697761163978 0.0001 -0.27522285210467934
v 0.63385183344643492 0.0001 -0.29413917388334926
v 0.62984640111380186 0.0001 -0.3108979035405075
v 0.76372931193067717 0.0001 0.081198114901780985
v 0.7256403226728646 0.0001 0.0839538522064685
v 0.72232916552779292 0.0001 0.092594903800636452
v 0.75828192358343882 0.0001 0.10279541015624991
v 0.76759588842718884 0.0001 -0.11074218750000008
v 0.74564612036078259 0.0001 -0.14150390625000006
v 0.72771914259969273 0.0001 -0.11890258528292187
v 0.71320746069281382 0.0001 -0.096215820312500075
v 0.693444659872642 0.0001 -0.056546022463589987
v 0.679572511962345 0.0001 -0.017517089843750087
v 0.67137739782660288 0.0001 0.019461051747202786
v 0.6686456931146888 0.0001 0.05297851562499991
v 0.670333316488853 0.0001 0.075152582675218488
v 0.67539618139593882 0.0001 0.097924804687499908
v 0.68330023804186868 0.0001 0.1177917480468749
v 0.69351141577093878 0.0001 0.1312499999999999
v 0.70515387704103272 0.0001 0.1389404296874999
v 0.7173517478021888 0.0001 0.1415039062499999
v 0.72850287247887846 0.0001 0.13921813704073421
v 0.73973944311468887 0.0001 0.13236083984374991
v 0.7500147119953392 0.0001 0.12039794139564028
v 0.71769354467718882 0.0001 0.098437499999999914
v 0.71268408496138669 0.0001 0.0904693574178963
v 0.70910589884473962 0.0001 0.080236813798546719
v 0.7062433493646888 0.0001 0.05297851562499991
v 0.70773871199666538 0.0001 0.028326410800218488
v 0.7122247946771888 0.0001 0.00837402343749991
v 0.72828924780218884 0.0001 0.058276367187499907
v 0.72730658243848967 0.0001 0.041293334960937407
v 0.72435858373968887 0.0001 0.028283691406249912
v 0.71935980574666547 0.0001 0.0177947971969842
v 0.76554510717718882 0.0001 0.0572509765624999
v 0.76285345678656391 0.0001 0.029394523426890279
v 0.75477850561468884 0.0001 0.0056396484374999119
v 0.7417902246906517 0.0001 -0.014697268232703295
v 0.72435858373968887 0.0001 -0.032299804687500086
v 0.74384901680490956 0.0001 -0.074981691408902484
v 0.606228961439013 0.0001 0.4708820846982944
v 0.6559604067515129 0.0001 0.41286206516704438
v 0.6559604067515129 0.0001 0.4080769089170444
v 0.6431430239390129 0.0001 0.4080769089170444
v 0.606228961439013 0.0001 0.19001050266704439
v 0.6431430239390129 0.0001 0.19001050266704439
v 0.57978242790992507 0.0001 0.40252270709059113
v 0.54436372706401293 0.0001 0.3764606979795444
v 0.54094575831401293 0.0001 0.41303296360454439
v 0.57342714222464841 0.0001 0.42954602219431576
v 0.58359559950037065 0.0001 0.36887707883759319
v 0.584866656751513 0.0001 0.3286091354795444
v 0.58356355604333932 0.0001 0.28904614866512746
v 0.57965425408179994 0.0001 0.255806402408396
v 0.57313875111136725 0.0001 0.22888989768723872
v 0.56401704737651293 0.0001 0.20829663547954438
v 0.55750154493576987 0.0001 0.19932447191129354
v 0.55025972446161453 0.0001 0.19291578001609921
v 0.54229158497615848 0.0001 0.18907056272762746
v 0.533597125501513 0.0001 0.18778882297954438
v 0.52579988795765809 0.0001 0.18909192405442624
v 0.51847261834624347 0.0001 0.19300122662714597
v 0.51161531715621367 0.0001 0.19951672971981496
v 0.50522798487651288 0.0001 0.20863843235454438
v 0.49633058644100225 0.0001 0.22905011423897848
v 0.48997530063348954 0.0001 0.25576367714709519
v 0.48616212843186357 0.0001 0.28877911961206149
v 0.48489107081401295 0.0001 0.32809644016704437
v 0.48618349122549542 0.0001 0.36810803097939959
v 0.49006075115609116 0.0001 0.40166821229538796
v 0.49652284865002277 0.0001 0.42877698020345439
v 0.5055697817515129 0.0001 0.44943433079204437
v 0.51221345875379753 0.0001 0.45878033322549339
v 0.51932710662218873 0.0001 0.465456054092263
v 0.52691072486774193 0.0001 0.46946148948079819
v 0.53496431300151293 0.0001 0.47079663547954437
v 0.54328493141071077 0.0001 0.46949353293782947
v 0.55098604216906377 0.0001 0.465584227920388
v 0.55806764576551626 0.0001 0.45906872433877466
v 0.5645297426890129 0.0001 0.4499470261045444
v 0.5346225161265129 0.0001 0.42755933079204439
v 0.52744478175151288 0.0001 0.40585522922954437
v 0.524753131360888 0.0001 0.37996411334059121
v 0.52385591456401293 0.0001 0.34193921360454438
v 0.525394000501513 0.0001 0.28144116672954439
v 0.528470172376513 0.0001 0.24674878391704438
v 0.5346225161265129 0.0001 0.23051343235454438
v 0.54197114893901288 0.0001 0.24931226047954438
v 0.545047320814013 0.0001 0.2749042988874662
v 0.54607271143901293 0.0001 0.31271558079204437
v 0.33233801474482444 0.0001 0.70052186706431785
v 0.38206946005732445 0.0001 0.64250184753306783
v 0.38206946005732445 0.0001 0.63771669128306785
v 0.36925207724482445 0.0001 0.63771669128306785
v 0.33233801474482444 0.0001 0.41965028503306789
v 0.36925207724482445 0.0001 0.41965028503306789
v 0.26466223349482443 0.0001 0.70052186706431785
v 0.31439367880732444 0.0001 0.64250184753306783
v 0.31439367880732444 0.0001 0.63771669128306785
v 0.30157629599482444 0.0001 0.63771669128306785
v 0.26466223349482443 0.0001 0.41965028503306789
v 0.30157629599482444 0.0001 0.41965028503306789
vn 0 1 0
g Arabic8
f 1//1 2//1 3//1
f 1//1 3//1 4//1
f 5//1 1//1 4//1
f 4//1 6//1 5//1
f 7//1 8//1 9//1
f 7//1 9//1 10//1
f 7//1 10//1 11//1
f 7//1 11//1 12//1
f 7//1 12//1 13//1
f 7//1 13//1 14//1
f 15//1 16//1 17//1
f 17//1 18//1 19//1
f 15//1 17//1 19//1
f 20//1 15//1 19//1
f 21//1 20//1 19//1
f 22//1 21//1 19//1
f 22//1 19//1 23//1
f 14//1 22//1 23//1
f 7//1 14//1 23//1
f 7//1 23//1 24//1
f 7//1 24//1 25//1
f 7//1 25//1 26//1
f 7//1 26//1 27//1
f 7//1 27//1 28//1
f 7//1 28//1 29//1
f 7//1 29//1 30//1
f 30//1 31//1 7//1
f 32//1 33//1 34//1
f 32//1 34//1 35//1
f 36//1 32//1 35//1
f 35//1 37//1 36//1
f 38//1 39//1 40//1
f 38//1 40//1 41//1
f 38//1 41//1 42//1
f 38//1 42//1 43//1
f 38//1 43//1 44//1
f 38//1 44//1 45//1
f 46//1 47//1 48//1
f 48//1 49//1 50//1
f 46//1 48//1 50//1
f 51//1 46//1 50//1
f 52//1 51//1 50//1
f 53//1 52//1 50//1
f 53//1 50//1 54//1
f 45//1 53//1 54//1
f 38//1 45//1 54//1
f 38//1 54//1 55//1
f 38//1 55//1 56//1
f 38//1 56//1 57//1
f 38//1 57//1 58//1
f 38//1 58//1 59//1
f 38//1 59//1 60//1
f 38//1 60//1 61//1
f 61//1 62//1 38//1
f 63//1 64//1 65//1
f 63//1 65//1 66//1
f 63//1 66//1 67//1
f 63//1 67//1 68//1
f 63//1 68//1 69//1
f 70//1 71//1 72//1
f 73//1 70//1 72//1
f 74//1 73//1 72//1
f 74//1 72//1 75//1
f 76//1 74//1 75//1
f 76//1 75//1 77//1
f 78//1 76//1 77//1
f 78//1 77//1 79//1
f 80//1 78//1 79//1
f 80//1 79//1 81//1
f 82//1 83//1 84//1
f 85//1 82//1 84//1
f 86//1 85//1 84//1
f 86//1 84//1 87//1
f 86//1 87//1 88//1
f 81//1 86//1 88//1
f 80//1 81//1 88//1
f 80//1 88//1 89//1
f 69//1 80//1 89//1
f 89//1 90//1 91//1
f 89//1 91//1 92//1
f 89//1 92//1 93//1
f 89//1 93//1 94//1
f 89//1 94//1 95//1
f 89//1 95//1 96//1
f 69//1 89//1 96//1
f 69//1 96//1 97//1
f 63//1 69//1 97//1
f 63//1 97//1 98//1
f 63//1 98//1 99//1
f 63//1 99//1 100//1
f 63//1 100//1 101//1
f 63//1 101//1 102//1
f 63//1 102//1 103//1
f 63//1 103//1 104//1
f 63//1 104//1 105//1
f 63//1 105//1 106//1
f 63//1 106//1 107//1
f 107//1 108//1 63//1
f 109//1 110//1 111//1
f 112//1 109//1 111//1
f 113//1 114//1 115//1
f 113//1 115//1 116//1
f 116//1 112//1 111//1
f 116//1 111//1 117//1
f 113//1 116//1 117//1
f 113//1 117//1 110//1
f 113//1 110//1 109//1
f 109//1 118//1 119//1
f 119//1 120//1 121//1
f 119//1 121//1 122//1
f 109//1 119//1 122//1
f 109//1 122//1 113//1
f 123//1 124//1 125//1
f 123//1 125//1 126//1
f 123//1 126//1 127//1
f 128//1 129//1 130//1
f 131//1 128//1 130//1
f 132//1 131//1 130//1
f 132//1 130//1 133//1
f 132//1 133//1 134//1
f 135//1 132//1 134//1
f 135//1 134//1 136//1
f 127//1 135//1 136//1
f 123//1 127//1 136//1
f 123//1 136//1 137//1
f 123//1 137//1 138//1
f 138//1 139//1 140//1
f 138//1 140//1 141//1
f 138//1 141//1 142//1
f 138//1 142//1 143//1
f 138//1 143//1 144//1
f 123//1 138//1 144//1
f 123//1 144//1 145//1
f 146//1 123//1 145//1
f 145//1 147//1 146//1
f 148//1 149//1 150//1
f 151//1 148//1 150//1
f 152//1 153//1 154//1
f 152//1 154//1 155//1
f 152//1 155//1 156//1
f 152//1 156//1 157//1
f 152//1 157//1 158//1
f 152//1 158//1 159//1
f 152//1 159//1 160//1
f 160//1 161//1 162//1
f 160//1 162//1 163//1
f 160//1 163//1 164//1
f 160//1 164//1 165//1
f 160//1 165//1 166//1
f 160//1 166//1 167//1
f 160//1 167//1 168//1
f 160//1 168//1 169//1
f 169//1 170//1 171//1
f 169//1 171//1 172//1
f 169//1 172//1 151//1
f 169//1 151//1 150//1
f 169//1 150//1 173//1
f 169//1 173//1 174//1
f 169//1 174//1 175//1
f 160//1 169//1 175//1
f 160//1 175//1 176//1
f 160//1 176//1 177//1
f 160//1 177//1 178//1
f 160//1 178//1 179//1
f 160//1 179//1 180//1
f 181//1 149//1 148//1
f 182//1 181//1 148//1
f 180//1 182//1 148//1
f 180//1 148//1 183//1
f 180//1 183//1 184//1
f 160//1 180//1 184//1
f 160//1 184//1 185//1
f 160//1 185//1 186//1
f 160//1 186//1 152//1
f 187//1 188//1 189//1
f 187//1 189//1 190//1
f 187//1 190//1 191//1
f 191//1 192//1 187//1
f 193//1 194//1 195//1
f 196//1 193//1 195//1
f 195//1 197//1 198//1
f 196//1 195//1 198//1
f 199//1 200//1 201//1
f 199//1 201//1 202//1
f 199//1 202//1 203//1
f 199//1 203//1 204//1
f 199//1 204//1 205//1
f 199//1 205//1 206//1
f 199//1 206//1 207//1
f 199//1 207//1 208//1
f 199//1 208//1 209//1
f 209//1 210//1 211//1
f 209//1 211//1 212//1
f 209//1 212//1 213//1
f 209//1 213//1 214//1
f 209//1 214//1 215//1
f 209//1 215//1 216//1
f 209//1 216//1 217//1
f 209//1 217//1 218//1
f 209//1 218//1 196//1
f 196//1 198//1 219//1
f 196//1 219//1 220//1
f 196//1 220//1 221//1
f 209//1 196//1 221//1
f 209//1 221//1 222//1
f 209//1 222//1 223//1
f 209//1 223//1 224//1
f 199//1 209//1 224//1
f 199//1 224//1 225//1
f 199//1 225//1 197//1
f 199//1 197//1 195//1
f 226//1 199//1 195//1
f 226//1 195//1 227//1
f 226//1 227//1 228//1
f 226//1 228//1 229//1
f 230//1 194//1 193//1
f 231//1 230//1 193//1
f 231//1 193//1 232//1
f 233//1 231//1 232//1
f 233//1 232//1 234//1
f 233//1 234//1 235//1
f 233//1 235//1 236//1
f 233//1 236//1 237//1
f 233//1 237//1 238//1
f 233//1 238//1 239//1
f 233//1 239//1 240//1
f 229//1 233//1 240//1
f 226//1 229//1 240//1
f 226//1 240//1 241//1
f 226//1 241//1 242//1
f 226//1 242//1 243//1
f 226//1 243//1 244//1
f 226//1 244//1 245//1
f 226//1 245//1 246//1
f 226//1 246//1 247//1
f 226//1 247//1 248//1
f 248//1 249//1 226//1
f 250//1 251//1 252//1
f 253//1 250//1 252//1
f 254//1 255//1 256//1
f 254//1 256//1 257//1
f 254//1 257//1 258//1
f 254//1 258//1 259//1
f 254//1 259//1 260//1
f 260//1 261//1 262//1
f 260//1 262//1 263//1
f 260//1 263//1 264//1
f 260//1 264//1 265//1
f 260//1 265//1 266//1
f 260//1 266//1 267//1
f 260//1 267//1 268//1
f 268//1 269//1 270//1
f 268//1 270//1 253//1
f 268//1 253//1 252//1
f 268//1 252//1 271//1
f 268//1 271//1 272//1
f 260//1 268//1 272//1
f 260//1 272//1 273//1
f 260//1 273//1 274//1
f 260//1 274//1 275//1
f 260//1 275//1 276//1
f 277//1 251//1 250//1
f 278//1 277//1 250//1
f 279//1 278//1 250//1
f 280//1 279//1 250//1
f 280//1 250//1 281//1
f 276//1 280//1 281//1
f 276//1 281//1 282//1
f 276//1 282//1 283//1
f 276//1 283//1 284//1
f 260//1 276//1 284//1
f 260//1 284//1 285//1
f 260//1 285//1 286//1
f 260//1 286//1 254//1
f 287//1 288//1 289//1
f 287//1 289//1 290//1
f 291//1 287//1 290//1
f 290//1 292//1 291//1
f 293//1 294//1 295//1
f 296//1 293//1 295//1
f 297//1 298//1 299//1
f 297//1 299//1 300//1
f 297//1 300//1 301//1
f 297//1 301//1 302//1
f 297//1 302//1 303//1
f 297//1 303//1 304//1
f 297//1 304//1 305//1
f 297//1 305//1 306//1
f 297//1 306//1 307//1
f 307//1 308//1 309//1
f 307//1 309//1 310//1
f 307//1 310//1 311//1
f 307//1 311//1 312//1
f 307//1 312//1 313//1
f 307//1 313//1 314//1
f 307//1 314//1 315//1
f 307//1 315//1 316//1
f 307//1 316//1 317//1
f 307//1 317//1 318//1
f 307//1 318//1 319//1
f 307//1 319//1 320//1
f 320//1 321//1 322//1
f 320//1 322//1 323//1
f 320//1 323//1 324//1
f 320//1 324//1 325//1
f 320//1 325//1 326//1
f 320//1 326//1 296//1
f 320//1 296//1 295//1
f 320//1 295//1 327//1
f 320//1 327//1 328//1
f 320//1 328//1 329//1
f 320//1 329//1 330//1
f 307//1 320//1 330//1
f 307//1 330//1 331//1
f 307//1 331//1 332//1
f 307//1 332//1 333//1
f 307//1 333//1 334//1
f 297//1 307//1 334//1
f 297//1 334//1 335//1
f 297//1 335//1 336//1
f 297//1 336//1 294//1
f 294//1 293//1 297//1
f 337//1 338//1 339//1
f 337//1 339//1 340//1
f 341//1 337//1 340//1
f 340//1 342//1 341//1
f 343//1 344//1 345//1
f 343//1 345//1 346//1
f 347//1 343//1 346//1
f 346//1 348//1 347//1
