o ClockfaceBackground
v 1 0 0
v 0 0 0
v 0.86602540378443871 0 0.49999999999999994
v 0.50000000000000011 0 0.8660254037844386
v 6.1230317691118863E-17 0 1
v -0.49999999999999978 0 0.86602540378443871
v -0.86602540378443871 0 0.49999999999999994
v -1 0 1.2246063538223773E-16
v -0.8660254037844386 0 -0.50000000000000011
v -0.50000000000000044 0 -0.86602540378443837
v -1.8369095307335659E-16 0 -1
v 0.50000000000000011 0 -0.8660254037844386
v 0.86602540378443837 0 -0.50000000000000044
vn 0 1 0
g ClockfaceBackground
f 1//1 2//1 3//1
f 3//1 2//1 4//1
f 4//1 2//1 5//1
f 5//1 2//1 6//1
f 6//1 2//1 7//1
f 7//1 2//1 8//1
f 8//1 2//1 9//1
f 9//1 2//1 10//1
f 10//1 2//1 11//1
f 11//1 2//1 12//1
f 12//1 2//1 13//1
f 13//1 2//1 1//1
