o Clockface
v 0.015 0.0001 0.825
v -0.015 0.0001 0.825
v -0.015 0.0001 0.925
v 0.015 0.0001 0.925
v -0.0789039748238227 0.0001 0.84638889569570874
v -0.098794412731188178 0.0001 0.84429832643035574
v -0.10402083589457085 0.0001 0.89402442119876946
v -0.084130397987205383 0.0001 0.89611499046412246
v -0.16694346118775735 0.0001 0.83350457753191243
v -0.18650641320243347 0.0001 0.82934634371555715
v -0.19690199774332146 0.0001 0.87825372375224753
v -0.17733904572864534 0.0001 0.8824119575686028
v -0.25315388005575379 0.0001 0.81148820879462991
v -0.27217501038165681 0.0001 0.805307868907131
v -0.2876258601004042 0.0001 0.85286069472188875
v -0.26860472977450117 0.0001 0.85904103460938763
v -0.33659069203800412 0.0001 0.78058100542696873
v -0.35486160119085614 0.0001 0.77244627256545273
v -0.37519843334464614 0.0001 0.81812354544758281
v -0.35692752419179413 0.0001 0.82625827830909881
v -0.39950961894323334 0.0001 0.72197095812216183
v -0.42549038105676651 0.0001 0.70697095812216193
v -0.47549038105676655 0.0001 0.79357349850060588
v -0.44950961894323338 0.0001 0.80857349850060578
v -0.49152729450485272 0.0001 0.69354229774163
v -0.50770763439235167 0.0001 0.68178659269578057
v -0.53709689700697527 0.0001 0.722237442414528
v -0.52091655711947638 0.0001 0.73399314746037747
v -0.5613295671502555 0.0001 0.63836440771937364
v -0.57619246365980337 0.0001 0.62498179559219647
v -0.60964899397774641 0.0001 0.66213903686606623
v -0.59478609746819855 0.0001 0.67552164899324341
v -0.62498179559219647 0.0001 0.57619246365980337
v -0.63836440771937364 0.0001 0.5613295671502555
v -0.6755216489932433 0.0001 0.59478609746819855
v -0.66213903686606612 0.0001 0.60964899397774641
v -0.68178659269578057 0.0001 0.50770763439235167
v -0.69354229774163 0.0001 0.49152729450485272
v -0.73399314746037747 0.0001 0.52091655711947638
v -0.722237442414528 0.0001 0.53709689700697527
v -0.70697095812216182 0.0001 0.42549038105676668
v -0.72197095812216172 0.0001 0.3995096189432335
v -0.80857349850060567 0.0001 0.44950961894323355
v -0.79357349850060577 0.0001 0.47549038105676672
v -0.77244627256545273 0.0001 0.35486160119085619
v -0.78058100542696873 0.0001 0.33659069203800418
v -0.82625827830909881 0.0001 0.35692752419179419
v -0.81812354544758281 0.0001 0.3751984333446462
v -0.805307868907131 0.0001 0.27217501038165681
v -0.81148820879462991 0.0001 0.25315388005575379
v -0.85904103460938763 0.0001 0.26860472977450123
v -0.85286069472188875 0.0001 0.28762586010040425
v -0.829346343715557 0.0001 0.18650641320243358
v -0.83350457753191232 0.0001 0.16694346118775746
v -0.88241195756860269 0.0001 0.17733904572864545
v -0.87825372375224742 0.0001 0.19690199774332157
v -0.84429832643035574 0.0001 0.098794412731188178
v -0.84638889569570874 0.0001 0.0789039748238227
v -0.89611499046412246 0.0001 0.084130397987205383
v -0.89402442119876946 0.0001 0.10402083589457085
v -0.825 0.0001 0.01500000000000005
v -0.825 0.0001 -0.014999999999999949
v -0.925 0.0001 -0.014999999999999942
v -0.925 0.0001 0.015000000000000057
v -0.84638889569570885 0.0001 -0.0789039748238226
v -0.84429832643035585 0.0001 -0.098794412731188067
v -0.89402442119876957 0.0001 -0.10402083589457074
v -0.89611499046412257 0.0001 -0.084130397987205272
v -0.83350457753191243 0.0001 -0.16694346118775719
v -0.82934634371555715 0.0001 -0.1865064132024333
v -0.87825372375224753 0.0001 -0.19690199774332126
v -0.8824119575686028 0.0001 -0.17733904572864515
v -0.81148820879463 0.0001 -0.25315388005575373
v -0.80530786890713113 0.0001 -0.27217501038165676
v -0.85286069472188886 0.0001 -0.28762586010040414
v -0.85904103460938774 0.0001 -0.26860472977450112
v -0.78058100542696884 0.0001 -0.336590692038004
v -0.77244627256545284 0.0001 -0.354861601190856
v -0.81812354544758292 0.0001 -0.37519843334464603
v -0.82625827830909893 0.0001 -0.356927524191794
v -0.72197095812216183 0.0001 -0.39950961894323322
v -0.70697095812216193 0.0001 -0.4254903810567664
v -0.79357349850060588 0.0001 -0.47549038105676639
v -0.80857349850060578 0.0001 -0.44950961894323321
v -0.69354229774163 0.0001 -0.49152729450485261
v -0.68178659269578057 0.0001 -0.50770763439235156
v -0.722237442414528 0.0001 -0.53709689700697516
v -0.73399314746037747 0.0001 -0.52091655711947626
v -0.63836440771937364 0.0001 -0.5613295671502555
v -0.62498179559219647 0.0001 -0.57619246365980337
v -0.66213903686606623 0.0001 -0.60964899397774641
v -0.67552164899324341 0.0001 -0.59478609746819855
v -0.57619246365980348 0.0001 -0.62498179559219635
v -0.56132956715025562 0.0001 -0.63836440771937353
v -0.59478609746819855 0.0001 -0.67552164899324318
v -0.60964899397774641 0.0001 -0.662139036866066
v -0.50770763439235167 0.0001 -0.68178659269578046
v -0.49152729450485277 0.0001 -0.6935422977416299
v -0.52091655711947649 0.0001 -0.73399314746037736
v -0.53709689700697538 0.0001 -0.72223744241452792
v -0.42549038105676651 0.0001 -0.70697095812216193
v -0.39950961894323334 0.0001 -0.72197095812216183
v -0.44950961894323338 0.0001 -0.80857349850060578
v -0.47549038105676655 0.0001 -0.79357349850060588
v -0.35486160119085636 0.0001 -0.77244627256545262
v -0.33659069203800435 0.0001 -0.78058100542696862
v -0.35692752419179441 0.0001 -0.8262582783090987
v -0.37519843334464642 0.0001 -0.8181235454475827
v -0.27217501038165687 0.0001 -0.805307868907131
v -0.25315388005575384 0.0001 -0.81148820879462991
v -0.26860472977450123 0.0001 -0.85904103460938763
v -0.28762586010040425 0.0001 -0.85286069472188875
v -0.18650641320243347 0.0001 -0.82934634371555715
v -0.16694346118775735 0.0001 -0.83350457753191243
v -0.17733904572864534 0.0001 -0.8824119575686028
v -0.19690199774332146 0.0001 -0.87825372375224753
v -0.098794412731188413 0.0001 -0.84429832643035574
v -0.078903974823822942 0.0001 -0.84638889569570874
v -0.084130397987205632 0.0001 -0.89611499046412246
v -0.1040208358945711 0.0001 -0.89402442119876946
v -0.0150000000000001 0.0001 -0.825
v 0.014999999999999899 0.0001 -0.825
v 0.014999999999999887 0.0001 -0.925
v -0.015000000000000112 0.0001 -0.925
v 0.078903974823822359 0.0001 -0.84638889569570885
v 0.098794412731187831 0.0001 -0.84429832643035585
v 0.10402083589457049 0.0001 -0.89402442119876957
v 0.084130397987205022 0.0001 -0.89611499046412257
v 0.16694346118775713 0.0001 -0.83350457753191243
v 0.18650641320243325 0.0001 -0.82934634371555715
v 0.19690199774332123 0.0001 -0.87825372375224753
v 0.17733904572864512 0.0001 -0.8824119575686028
v 0.25315388005575407 0.0001 -0.81148820879462991
v 0.27217501038165709 0.0001 -0.805307868907131
v 0.28762586010040447 0.0001 -0.85286069472188875
v 0.26860472977450145 0.0001 -0.85904103460938763
v 0.33659069203800385 0.0001 -0.780581005426969
v 0.35486160119085586 0.0001 -0.772446272565453
v 0.37519843334464587 0.0001 -0.818123545447583
v 0.35692752419179385 0.0001 -0.826258278309099
v 0.3995096189432335 0.0001 -0.72197095812216172
v 0.42549038105676668 0.0001 -0.70697095812216182
v 0.47549038105676672 0.0001 -0.79357349850060577
v 0.44950961894323355 0.0001 -0.80857349850060567
v 0.49152729450485255 0.0001 -0.69354229774163012
v 0.50770763439235156 0.0001 -0.68178659269578068
v 0.53709689700697516 0.0001 -0.72223744241452814
v 0.52091655711947626 0.0001 -0.73399314746037758
v 0.5613295671502555 0.0001 -0.63836440771937364
v 0.57619246365980337 0.0001 -0.62498179559219647
v 0.60964899397774641 0.0001 -0.66213903686606623
v 0.59478609746819855 0.0001 -0.67552164899324341
v 0.62498179559219635 0.0001 -0.57619246365980359
v 0.63836440771937353 0.0001 -0.56132956715025573
v 0.67552164899324318 0.0001 -0.59478609746819866
v 0.662139036866066 0.0001 -0.60964899397774652
v 0.68178659269578046 0.0001 -0.50770763439235167
v 0.6935422977416299 0.0001 -0.49152729450485277
v 0.73399314746037736 0.0001 -0.52091655711947649
v 0.72223744241452792 0.0001 -0.53709689700697538
v 0.70697095812216171 0.0001 -0.42549038105676695
v 0.72197095812216161 0.0001 -0.39950961894323378
v 0.80857349850060545 0.0001 -0.44950961894323382
v 0.79357349850060555 0.0001 -0.475490381056767
v 0.77244627256545284 0.0001 -0.35486160119085608
v 0.78058100542696884 0.0001 -0.33659069203800407
v 0.82625827830909893 0.0001 -0.35692752419179408
v 0.81812354544758292 0.0001 -0.37519843334464609
v 0.805307868907131 0.0001 -0.27217501038165692
v 0.81148820879462991 0.0001 -0.2531538800557539
v 0.85904103460938763 0.0001 -0.26860472977450128
v 0.85286069472188875 0.0001 -0.28762586010040431
v 0.829346343715557 0.0001 -0.18650641320243389
v 0.83350457753191232 0.0001 -0.16694346118775777
v 0.88241195756860269 0.0001 -0.17733904572864576
v 0.87825372375224742 0.0001 -0.19690199774332187
v 0.84429832643035585 0.0001 -0.0987944127311881
v 0.84638889569570885 0.0001 -0.078903974823822623
v 0.89611499046412257 0.0001 -0.084130397987205285
v 0.89402442119876957 0.0001 -0.10402083589457076
v 0.825 0.0001 -0.01500000000000015
v 0.825 0.0001 0.014999999999999849
v 0.925 0.0001 0.014999999999999829
v 0.925 0.0001 -0.015000000000000169
v 0.84638889569570885 0.0001 0.0789039748238223
v 0.84429832643035585 0.0001 0.098794412731187775
v 0.89402442119876957 0.0001 0.10402083589457042
v 0.89611499046412257 0.0001 0.084130397987204952
v 0.83350457753191254 0.0001 0.16694346118775671
v 0.82934634371555727 0.0001 0.18650641320243283
v 0.87825372375224764 0.0001 0.19690199774332076
v 0.88241195756860291 0.0001 0.17733904572864465
v 0.81148820879463 0.0001 0.25315388005575362
v 0.80530786890713113 0.0001 0.27217501038165665
v 0.85286069472188886 0.0001 0.28762586010040403
v 0.85904103460938774 0.0001 0.268604729774501
v 0.78058100542696862 0.0001 0.33659069203800446
v 0.77244627256545262 0.0001 0.35486160119085647
v 0.8181235454475827 0.0001 0.37519843334464648
v 0.8262582783090987 0.0001 0.35692752419179447
v 0.72197095812216172 0.0001 0.3995096189432335
v 0.70697095812216182 0.0001 0.42549038105676668
v 0.79357349850060577 0.0001 0.47549038105676672
v 0.80857349850060567 0.0001 0.44950961894323355
v 0.69354229774163012 0.0001 0.49152729450485244
v 0.68178659269578068 0.0001 0.50770763439235145
v 0.72223744241452814 0.0001 0.537096897006975
v 0.73399314746037758 0.0001 0.52091655711947615
v 0.638364407719374 0.0001 0.56132956715025517
v 0.6249817955921968 0.0001 0.576192463659803
v 0.66213903686606657 0.0001 0.609648993977746
v 0.67552164899324374 0.0001 0.5947860974681981
v 0.57619246365980337 0.0001 0.62498179559219647
v 0.5613295671502555 0.0001 0.63836440771937364
v 0.59478609746819844 0.0001 0.67552164899324341
v 0.6096489939777463 0.0001 0.66213903686606623
v 0.50770763439235178 0.0001 0.68178659269578046
v 0.49152729450485289 0.0001 0.6935422977416299
v 0.5209165571194766 0.0001 0.73399314746037736
v 0.53709689700697549 0.0001 0.72223744241452792
v 0.42549038105676695 0.0001 0.70697095812216171
v 0.39950961894323378 0.0001 0.72197095812216161
v 0.44950961894323382 0.0001 0.80857349850060545
v 0.475490381056767 0.0001 0.79357349850060555
v 0.35486160119085614 0.0001 0.77244627256545284
v 0.33659069203800412 0.0001 0.78058100542696884
v 0.35692752419179413 0.0001 0.82625827830909893
v 0.37519843334464614 0.0001 0.81812354544758292
v 0.272175010381657 0.0001 0.805307868907131
v 0.25315388005575395 0.0001 0.81148820879462991
v 0.26860472977450134 0.0001 0.85904103460938763
v 0.28762586010040436 0.0001 0.85286069472188875
v 0.18650641320243394 0.0001 0.829346343715557
v 0.16694346118775782 0.0001 0.83350457753191232
v 0.17733904572864584 0.0001 0.88241195756860269
v 0.19690199774332196 0.0001 0.87825372375224742
v 0.098794412731188136 0.0001 0.84429832643035574
v 0.078903974823822665 0.0001 0.84638889569570874
v 0.084130397987205341 0.0001 0.89611499046412246
v 0.10402083589457081 0.0001 0.89402442119876946
vn 0 1 0
g Clockface
f 1//1 2//1 3//1 4//1
f 5//1 6//1 7//1 8//1
f 9//1 10//1 11//1 12//1
f 13//1 14//1 15//1 16//1
f 17//1 18//1 19//1 20//1
f 21//1 22//1 23//1 24//1
f 25//1 26//1 27//1 28//1
f 29//1 30//1 31//1 32//1
f 33//1 34//1 35//1 36//1
f 37//1 38//1 39//1 40//1
f 41//1 42//1 43//1 44//1
f 45//1 46//1 47//1 48//1
f 49//1 50//1 51//1 52//1
f 53//1 54//1 55//1 56//1
f 57//1 58//1 59//1 60//1
f 61//1 62//1 63//1 64//1
f 65//1 66//1 67//1 68//1
f 69//1 70//1 71//1 72//1
f 73//1 74//1 75//1 76//1
f 77//1 78//1 79//1 80//1
f 81//1 82//1 83//1 84//1
f 85//1 86//1 87//1 88//1
f 89//1 90//1 91//1 92//1
f 93//1 94//1 95//1 96//1
f 97//1 98//1 99//1 100//1
f 101//1 102//1 103//1 104//1
f 105//1 106//1 107//1 108//1
f 109//1 110//1 111//1 112//1
f 113//1 114//1 115//1 116//1
f 117//1 118//1 119//1 120//1
f 121//1 122//1 123//1 124//1
f 125//1 126//1 127//1 128//1
f 129//1 130//1 131//1 132//1
f 133//1 134//1 135//1 136//1
f 137//1 138//1 139//1 140//1
f 141//1 142//1 143//1 144//1
f 145//1 146//1 147//1 148//1
f 149//1 150//1 151//1 152//1
f 153//1 154//1 155//1 156//1
f 157//1 158//1 159//1 160//1
f 161//1 162//1 163//1 164//1
f 165//1 166//1 167//1 168//1
f 169//1 170//1 171//1 172//1
f 173//1 174//1 175//1 176//1
f 177//1 178//1 179//1 180//1
f 181//1 182//1 183//1 184//1
f 185//1 186//1 187//1 188//1
f 189//1 190//1 191//1 192//1
f 193//1 194//1 195//1 196//1
f 197//1 198//1 199//1 200//1
f 201//1 202//1 203//1 204//1
f 205//1 206//1 207//1 208//1
f 209//1 210//1 211//1 212//1
f 213//1 214//1 215//1 216//1
f 217//1 218//1 219//1 220//1
f 221//1 222//1 223//1 224//1
f 225//1 226//1 227//1 228//1
f 229//1 230//1 231//1 232//1
f 233//1 234//1 235//1 236//1
f 237//1 238//1 239//1 240//1
