o PM
v -0.27821876108646393 0 0.064500004053115845
v -0.28521876037120819 0 -0.002499997615814209
v -0.34021873772144318 0 -0.002499997615814209
v -0.34021873772144318 0 0.064500004053115845
v -0.41521872580051422 0 -0.33349999785423279
v -0.41521872580051422 0 0.33349999785423279
v -0.34021873772144318 0 0.33349999785423279
v -0.34021873772144318 0 -0.26649996638298035
v -0.28521876037120819 0 -0.26649996638298035
v -0.24657812900841236 0 -0.2567030992358923
v -0.24657812900841236 0 -0.012296873610466719
v -0.21909375488758087 0 -0.039625000208616257
v -0.20696875359863043 0 0.048453127965331078
v -0.19721876084804535 0 -0.13449999690055847
v -0.15746875107288361 0 0.005125001072883606
v -0.21909375488758087 0 -0.22937498986721039
v -0.1285937512293458 0 -0.058265624567866325
v -0.11921875178813934 0 -0.13449999690055847
v -0.1285937512293458 0 -0.21073436923325062
v -0.15746875107288361 0 -0.27412499487400055
v -0.20696875359863043 0 -0.317453121766448
v -0.27821876108646393 0 -0.33349999785423279
v 0.3412187248468399 0 -0.1654999852180481
v 0.3412187248468399 0 0.33349999785423279
v 0.41521872580051422 0 0.33349999785423279
v 0.41521872580051422 0 -0.33349999785423279
v 0.3152187317609787 0 -0.33349999785423279
v 0.19921873509883881 0 0.11349999904632568
v 0.085218757390975952 0 -0.33349999785423279
v -0.016781225800514221 0 -0.33349999785423279
v -0.016781225800514221 0 0.33349999785423279
v 0.058218762278556824 0 0.33349999785423279
v 0.058218762278556824 0 -0.1654999852180481
v 0.18421874940395355 0 0.33349999785423279
v 0.21421875059604645 0 0.33349999785423279
vn 0 1 0
g PM
f 1//1 2//1 3//1
f 4//1 1//1 3//1
f 5//1 6//1 7//1
f 5//1 7//1 4//1
f 5//1 4//1 3//1
f 5//1 3//1 8//1
f 5//1 8//1 9//1
f 5//1 9//1 10//1
f 11//1 2//1 1//1
f 12//1 11//1 1//1
f 12//1 1//1 13//1
f 14//1 12//1 13//1
f 14//1 13//1 15//1
f 16//1 14//1 15//1
f 16//1 15//1 17//1
f 16//1 17//1 18//1
f 10//1 16//1 18//1
f 10//1 18//1 19//1
f 5//1 10//1 19//1
f 5//1 19//1 20//1
f 5//1 20//1 21//1
f 21//1 22//1 5//1
f 23//1 24//1 25//1
f 23//1 25//1 26//1
f 23//1 26//1 27//1
f 23//1 27//1 28//1
f 28//1 29//1 30//1
f 30//1 31//1 32//1
f 30//1 32//1 33//1
f 28//1 30//1 33//1
f 28//1 33//1 34//1
f 23//1 28//1 34//1
f 34//1 35//1 23//1
