o Roman14
v 0.00082397460937495761 0.0001 0.61730347200446778
v -0.024993896484375042 0.0001 0.61730347200446778
v 0.035980224609374958 0.0001 0.69585571809821778
v 0.01735839843749996 0.0001 0.71936646028571771
v -0.0064270019531250423 0.0001 0.74946899934821776
v -0.018292236328125041 0.0001 0.76484985872321776
v -0.017083740234375044 0.0001 0.76583862825446769
v 0.00785522460937496 0.0001 0.76583862825446769
v 0.049713134765624958 0.0001 0.71431274934821776
v 0.091131591796874967 0.0001 0.76583862825446769
v 0.11716918945312496 0.0001 0.76583862825446769
v 0.11760864257812496 0.0001 0.76463013216071773
v 0.063885498046874961 0.0001 0.69585571809821778
v 0.12529907226562495 0.0001 0.61840210481696778
v 0.12507934570312496 0.0001 0.61730347200446778
v 0.098712158203124956 0.0001 0.61730347200446778
v 0.050372314453124963 0.0001 0.67761841341071771
v 0.049713134765624958 0.0001 0.67761841341071771
v -0.07025756835937505 0.0001 0.61730347200446778
v -0.071136474609375042 0.0001 0.61818237825446776
v -0.071136474609375042 0.0001 0.76517944856696773
v -0.070477294921875044 0.0001 0.76583862825446769
v -0.050921630859375046 0.0001 0.76583862825446769
v -0.049932861328125043 0.0001 0.76484985872321776
v -0.049932861328125043 0.0001 0.61796265169196773
v -0.050701904296875044 0.0001 0.61730347200446778
v -0.12442016601562504 0.0001 0.61730347200446778
v -0.12529907226562506 0.0001 0.61818237825446776
v -0.12529907226562506 0.0001 0.76517944856696773
v -0.12463989257812505 0.0001 0.76583862825446769
v -0.10508422851562504 0.0001 0.76583862825446769
v -0.10409545898437504 0.0001 0.76484985872321776
v -0.10409545898437504 0.0001 0.61796265169196773
v -0.10486450195312505 0.0001 0.61730347200446778
v -0.36223418241249034 0.0001 0.536299872578112
v -0.36311308866249031 0.0001 0.53717877882811194
v -0.36311308866249031 0.0001 0.68417584914061191
v -0.3624539089749903 0.0001 0.68483502882811187
v -0.34289824491249032 0.0001 0.68483502882811187
v -0.34190947538124034 0.0001 0.68384625929686194
v -0.34190947538124034 0.0001 0.53695905226561191
v -0.3426785183499903 0.0001 0.536299872578112
v -0.59243471506913215 0.0001 0.277796640108034
v -0.59331362131913212 0.0001 0.27867554635803404
v -0.59331362131913212 0.0001 0.425672616670534
v -0.59265444163163217 0.0001 0.42633179635803403
v -0.57309877756913208 0.0001 0.42633179635803403
v -0.57211000803788215 0.0001 0.42534302682678404
v -0.57211000803788215 0.0001 0.278455819795534
v -0.57287905100663217 0.0001 0.277796640108034
v -0.64659731272538212 0.0001 0.277796640108034
v -0.6474762189753821 0.0001 0.27867554635803404
v -0.6474762189753821 0.0001 0.425672616670534
v -0.64681703928788215 0.0001 0.42633179635803403
v -0.62726137522538217 0.0001 0.42633179635803403
v -0.62627260569413212 0.0001 0.42534302682678404
v -0.62627260569413212 0.0001 0.278455819795534
v -0.62704164866288215 0.0001 0.277796640108034
v -0.66253756339390657 0.0001 -0.074267578125
v -0.66341646964390655 0.0001 -0.073388671875
v -0.66341646964390655 0.0001 0.0736083984375
v -0.66275728995640659 0.0001 0.074267578125
v -0.64320162589390661 0.0001 0.074267578125
v -0.64221285636265657 0.0001 0.073278808593750008
v -0.64221285636265657 0.0001 -0.0736083984375
v -0.64298189933140659 0.0001 -0.074267578125
v -0.71670016105015655 0.0001 -0.074267578125
v -0.71757906730015664 0.0001 -0.073388671875
v -0.71757906730015664 0.0001 0.0736083984375
v -0.71691988761265657 0.0001 0.074267578125
v -0.69736422355015659 0.0001 0.074267578125
v -0.69637545401890655 0.0001 0.073278808593750008
v -0.69637545401890655 0.0001 -0.0736083984375
v -0.69714449698765657 0.0001 -0.074267578125
v -0.77086275870640664 0.0001 -0.074267578125
v -0.77174166495640661 0.0001 -0.073388671875
v -0.77174166495640661 0.0001 0.0736083984375
v -0.77108248526890655 0.0001 0.074267578125
v -0.75152682120640657 0.0001 0.074267578125
v -0.75053805167515664 0.0001 0.073278808593750008
v -0.75053805167515664 0.0001 -0.0736083984375
v -0.75130709464390655 0.0001 -0.074267578125
v -0.542348323647688 0.0001 -0.42703602565487431
v -0.543227229897688 0.0001 -0.42615711940487433
v -0.543227229897688 0.0001 -0.2791600490923743
v -0.54256805021018806 0.0001 -0.27850086940487428
v -0.52301238614768808 0.0001 -0.27850086940487428
v -0.522023616616438 0.0001 -0.27948963893612427
v -0.522023616616438 0.0001 -0.4263768459673743
v -0.52279265958518806 0.0001 -0.42703602565487431
v -0.64687121946067627 0.0001 -0.42703602565487431
v -0.700002132241438 0.0001 -0.27850086940487428
v -0.67683986264915286 0.0001 -0.27850086940487428
v -0.635454021279524 0.0001 -0.39594471706112427
v -0.58737338620872315 0.0001 -0.27850086940487428
v -0.562782893960188 0.0001 -0.27850086940487428
v -0.62491572934837158 0.0001 -0.42703602565487431
v -0.3667840771139273 0.0001 -0.68274632924286027
v -0.41991498989468906 0.0001 -0.53421117299286036
v -0.39675272030240388 0.0001 -0.53421117299286036
v -0.35536687893277497 0.0001 -0.65165502064911029
v -0.30728624386197417 0.0001 -0.53421117299286036
v -0.282695751613439 0.0001 -0.53421117299286036
v -0.34482858700162261 0.0001 -0.68274632924286027
v 0.0062192916870116768 0.0001 -0.77024295565487888
v -0.046911621093750043 0.0001 -0.621707799404879
v -0.023749351501464885 0.0001 -0.621707799404879
v 0.017636489868164022 0.0001 -0.7391516470611289
v 0.06571712493896481 0.0001 -0.621707799404879
v 0.090307617187499967 0.0001 -0.621707799404879
v 0.028174781799316366 0.0001 -0.77024295565487888
v -0.089428710937500044 0.0001 -0.77024295565487888
v -0.09030761718750005 0.0001 -0.7693640494048789
v -0.09030761718750005 0.0001 -0.62236697909237892
v -0.089648437500000039 0.0001 -0.621707799404879
v -0.070092773437500047 0.0001 -0.621707799404879
v -0.069104003906250044 0.0001 -0.6226965689361289
v -0.069104003906250044 0.0001 -0.76958377596737892
v -0.069873046875000039 0.0001 -0.77024295565487888
v 0.37479463191695622 0.0001 -0.6657526083149814
v 0.32166371913619451 0.0001 -0.51721745206498149
v 0.34482598872847964 0.0001 -0.51721745206498149
v 0.38621183009810856 0.0001 -0.63466129972123142
v 0.43429246516890935 0.0001 -0.51721745206498149
v 0.4588829574174445 0.0001 -0.51721745206498149
v 0.39675012202926091 0.0001 -0.6657526083149814
v 0.27914662929244449 0.0001 -0.6657526083149814
v 0.27826772304244451 0.0001 -0.66487370206498142
v 0.27826772304244451 0.0001 -0.51787663175248144
v 0.27892690272994447 0.0001 -0.51721745206498149
v 0.2984825667924445 0.0001 -0.51721745206498149
v 0.29947133632369449 0.0001 -0.51820622159623142
v 0.29947133632369449 0.0001 -0.66509342862748144
v 0.29870229335494447 0.0001 -0.6657526083149814
v 0.22498403163619449 0.0001 -0.6657526083149814
v 0.22410512538619448 0.0001 -0.66487370206498142
v 0.22410512538619448 0.0001 -0.51787663175248144
v 0.22476430507369449 0.0001 -0.51721745206498149
v 0.24431996913619447 0.0001 -0.51721745206498149
v 0.24530873866744449 0.0001 -0.51820622159623142
v 0.24530873866744449 0.0001 -0.66509342862748144
v 0.24453969569869449 0.0001 -0.6657526083149814
v 0.63737712849096484 0.0001 -0.40739593476805885
v 0.58424621571020308 0.0001 -0.25886077851805883
v 0.60740848530248825 0.0001 -0.25886077851805883
v 0.64879432667211723 0.0001 -0.37630462617430882
v 0.696874961742918 0.0001 -0.25886077851805883
v 0.72146545399145312 0.0001 -0.25886077851805883
v 0.65933261860326953 0.0001 -0.40739593476805885
v 0.54172912586645316 0.0001 -0.40739593476805885
v 0.54085021961645308 0.0001 -0.40651702851805882
v 0.54085021961645308 0.0001 -0.25951995820555884
v 0.54150939930395314 0.0001 -0.25886077851805883
v 0.56106506336645312 0.0001 -0.25886077851805883
v 0.56205383289770316 0.0001 -0.25984954804930882
v 0.56205383289770316 0.0001 -0.40673675508055884
v 0.56128478992895314 0.0001 -0.40739593476805885
v 0.48756652821020313 0.0001 -0.40739593476805885
v 0.4866876219602031 0.0001 -0.40651702851805882
v 0.4866876219602031 0.0001 -0.25951995820555884
v 0.48734680164770311 0.0001 -0.25886077851805883
v 0.50690246571020314 0.0001 -0.25886077851805883
v 0.50789123524145308 0.0001 -0.25984954804930882
v 0.50789123524145308 0.0001 -0.40673675508055884
v 0.50712219227270316 0.0001 -0.40739593476805885
v 0.4334039305539531 0.0001 -0.40739593476805885
v 0.43252502430395312 0.0001 -0.40651702851805882
v 0.43252502430395312 0.0001 -0.25951995820555884
v 0.43318420399145308 0.0001 -0.25886077851805883
v 0.45273986805395311 0.0001 -0.25886077851805883
v 0.4537286375852031 0.0001 -0.25984954804930882
v 0.4537286375852031 0.0001 -0.40673675508055884
v 0.45295959461645313 0.0001 -0.40739593476805885
v 0.75153562376961991 0.0001 -0.07426757812500008
v 0.75065671751961993 0.0001 -0.073388671875000089
v 0.75065671751961993 0.0001 0.073608398437499917
v 0.75131589720711989 0.0001 0.074267578124999914
v 0.77087156126961986 0.0001 0.074267578124999914
v 0.77186033080086991 0.0001 0.073278808593749925
v 0.77186033080086991 0.0001 -0.073608398437500083
v 0.77109128783211989 0.0001 -0.07426757812500008
v 0.60442869017586986 0.0001 -0.07426757812500008
v 0.57861081908211986 0.0001 -0.07426757812500008
v 0.63958494017586986 0.0001 0.0042846679687499178
v 0.62096311400399484 0.0001 0.027795410156249919
v 0.59717771361336991 0.0001 0.057897949218749918
v 0.58531247923836993 0.0001 0.073278808593749925
v 0.58652097533211989 0.0001 0.074267578124999914
v 0.61145994017586991 0.0001 0.074267578124999914
v 0.65331785033211986 0.0001 0.022741699218749918
v 0.69473630736336989 0.0001 0.074267578124999914
v 0.72077390501961991 0.0001 0.074267578124999914
v 0.72121335814461984 0.0001 0.073059082031249917
v 0.66749021361336991 0.0001 0.0042846679687499178
v 0.72890378783211984 0.0001 -0.07316894531250008
v 0.72868406126961993 0.0001 -0.07426757812500008
v 0.70231687376961993 0.0001 -0.07426757812500008
v 0.65397703001961993 0.0001 -0.013952636718750083
v 0.65331785033211986 0.0001 -0.013952636718750083
v 0.53894762155806086 0.0001 0.26537386441733574
v 0.51312975046431086 0.0001 0.26537386441733574
v 0.57410387155806086 0.0001 0.34392611051108574
v 0.555482045386186 0.0001 0.36743685269858573
v 0.53169664499556091 0.0001 0.39753939176108577
v 0.51983141062056093 0.0001 0.41292025113608577
v 0.52103990671431089 0.0001 0.41390902066733576
v 0.54597887155806091 0.0001 0.41390902066733576
v 0.58783678171431086 0.0001 0.36238314176108577
v 0.62925523874556089 0.0001 0.41390902066733576
v 0.65529283640181091 0.0001 0.41390902066733576
v 0.655732289526811 0.0001 0.41270052457358575
v 0.60200914499556091 0.0001 0.34392611051108574
v 0.663422719214311 0.0001 0.26647249722983574
v 0.66320299265181093 0.0001 0.26537386441733574
v 0.63683580515181093 0.0001 0.26537386441733574
v 0.58849596140181093 0.0001 0.32568880582358573
v 0.58783678171431086 0.0001 0.32568880582358573
v 0.30608962007634138 0.0001 0.50137421513436109
v 0.28027174898259138 0.0001 0.50137421513436109
v 0.34124587007634138 0.0001 0.57992646122811109
v 0.32262404390446636 0.0001 0.603437203415611
v 0.29883864351384137 0.0001 0.63353974247811107
v 0.2869734091388414 0.0001 0.64892060185311107
v 0.28818190523259135 0.0001 0.649909371384361
v 0.31312087007634137 0.0001 0.649909371384361
v 0.35497878023259138 0.0001 0.59838349247811107
v 0.39639723726384135 0.0001 0.649909371384361
v 0.42243483492009137 0.0001 0.649909371384361
v 0.42287428804509136 0.0001 0.648700875290611
v 0.36915114351384137 0.0001 0.57992646122811109
v 0.43056471773259136 0.0001 0.50247284794686109
v 0.4303449911700914 0.0001 0.50137421513436109
v 0.4039778036700914 0.0001 0.50137421513436109
v 0.3556379599200914 0.0001 0.561689156540611
v 0.35497878023259138 0.0001 0.561689156540611
v 0.23500807710759136 0.0001 0.50137421513436109
v 0.23412917085759138 0.0001 0.50225312138436107
v 0.23412917085759138 0.0001 0.649250191696861
v 0.23478835054509137 0.0001 0.649909371384361
v 0.25434401460759137 0.0001 0.649909371384361
v 0.25533278413884136 0.0001 0.64892060185311107
v 0.25533278413884136 0.0001 0.502033394821861
v 0.2545637411700914 0.0001 0.50137421513436109
vn 0 1 0
g Roman14
f 1//1 2//1 3//1
f 3//1 4//1 5//1
f 3//1 5//1 6//1
f 3//1 6//1 7//1
f 3//1 7//1 8//1
f 3//1 8//1 9//1
f 1//1 3//1 9//1
f 1//1 9//1 10//1
f 1//1 10//1 11//1
f 1//1 11//1 12//1
f 1//1 12//1 13//1
f 13//1 14//1 15//1
f 13//1 15//1 16//1
f 13//1 16//1 17//1
f 13//1 17//1 18//1
f 13//1 18//1 1//1
f 19//1 20//1 21//1
f 19//1 21//1 22//1
f 19//1 22//1 23//1
f 19//1 23//1 24//1
f 19//1 24//1 25//1
f 25//1 26//1 19//1
f 27//1 28//1 29//1
f 27//1 29//1 30//1
f 27//1 30//1 31//1
f 27//1 31//1 32//1
f 27//1 32//1 33//1
f 33//1 34//1 27//1
f 35//1 36//1 37//1
f 35//1 37//1 38//1
f 35//1 38//1 39//1
f 35//1 39//1 40//1
f 35//1 40//1 41//1
f 41//1 42//1 35//1
f 43//1 44//1 45//1
f 43//1 45//1 46//1
f 43//1 46//1 47//1
f 43//1 47//1 48//1
f 43//1 48//1 49//1
f 49//1 50//1 43//1
f 51//1 52//1 53//1
f 51//1 53//1 54//1
f 51//1 54//1 55//1
f 51//1 55//1 56//1
f 51//1 56//1 57//1
f 57//1 58//1 51//1
f 59//1 60//1 61//1
f 59//1 61//1 62//1
f 59//1 62//1 63//1
f 59//1 63//1 64//1
f 59//1 64//1 65//1
f 65//1 66//1 59//1
f 67//1 68//1 69//1
f 67//1 69//1 70//1
f 67//1 70//1 71//1
f 67//1 71//1 72//1
f 67//1 72//1 73//1
f 73//1 74//1 67//1
f 75//1 76//1 77//1
f 75//1 77//1 78//1
f 75//1 78//1 79//1
f 75//1 79//1 80//1
f 75//1 80//1 81//1
f 81//1 82//1 75//1
f 83//1 84//1 85//1
f 83//1 85//1 86//1
f 83//1 86//1 87//1
f 83//1 87//1 88//1
f 83//1 88//1 89//1
f 89//1 90//1 83//1
f 91//1 92//1 93//1
f 91//1 93//1 94//1
f 91//1 94//1 95//1
f 91//1 95//1 96//1
f 96//1 97//1 91//1
f 98//1 99//1 100//1
f 98//1 100//1 101//1
f 98//1 101//1 102//1
f 98//1 102//1 103//1
f 103//1 104//1 98//1
f 105//1 106//1 107//1
f 105//1 107//1 108//1
f 105//1 108//1 109//1
f 105//1 109//1 110//1
f 110//1 111//1 105//1
f 112//1 113//1 114//1
f 112//1 114//1 115//1
f 112//1 115//1 116//1
f 112//1 116//1 117//1
f 112//1 117//1 118//1
f 118//1 119//1 112//1
f 120//1 121//1 122//1
f 120//1 122//1 123//1
f 120//1 123//1 124//1
f 120//1 124//1 125//1
f 125//1 126//1 120//1
f 127//1 128//1 129//1
f 127//1 129//1 130//1
f 127//1 130//1 131//1
f 127//1 131//1 132//1
f 127//1 132//1 133//1
f 133//1 134//1 127//1
f 135//1 136//1 137//1
f 135//1 137//1 138//1
f 135//1 138//1 139//1
f 135//1 139//1 140//1
f 135//1 140//1 141//1
f 141//1 142//1 135//1
f 143//1 144//1 145//1
f 143//1 145//1 146//1
f 143//1 146//1 147//1
f 143//1 147//1 148//1
f 148//1 149//1 143//1
f 150//1 151//1 152//1
f 150//1 152//1 153//1
f 150//1 153//1 154//1
f 150//1 154//1 155//1
f 150//1 155//1 156//1
f 156//1 157//1 150//1
f 158//1 159//1 160//1
f 158//1 160//1 161//1
f 158//1 161//1 162//1
f 158//1 162//1 163//1
f 158//1 163//1 164//1
f 164//1 165//1 158//1
f 166//1 167//1 168//1
f 166//1 168//1 169//1
f 166//1 169//1 170//1
f 166//1 170//1 171//1
f 166//1 171//1 172//1
f 172//1 173//1 166//1
f 174//1 175//1 176//1
f 174//1 176//1 177//1
f 174//1 177//1 178//1
f 174//1 178//1 179//1
f 174//1 179//1 180//1
f 180//1 181//1 174//1
f 182//1 183//1 184//1
f 184//1 185//1 186//1
f 184//1 186//1 187//1
f 184//1 187//1 188//1
f 184//1 188//1 189//1
f 184//1 189//1 190//1
f 182//1 184//1 190//1
f 182//1 190//1 191//1
f 182//1 191//1 192//1
f 182//1 192//1 193//1
f 182//1 193//1 194//1
f 194//1 195//1 196//1
f 194//1 196//1 197//1
f 194//1 197//1 198//1
f 194//1 198//1 199//1
f 194//1 199//1 182//1
f 200//1 201//1 202//1
f 202//1 203//1 204//1
f 202//1 204//1 205//1
f 202//1 205//1 206//1
f 202//1 206//1 207//1
f 202//1 207//1 208//1
f 200//1 202//1 208//1
f 200//1 208//1 209//1
f 200//1 209//1 210//1
f 200//1 210//1 211//1
f 200//1 211//1 212//1
f 212//1 213//1 214//1
f 212//1 214//1 215//1
f 212//1 215//1 216//1
f 212//1 216//1 217//1
f 212//1 217//1 200//1
f 218//1 219//1 220//1
f 220//1 221//1 222//1
f 220//1 222//1 223//1
f 220//1 223//1 224//1
f 220//1 224//1 225//1
f 220//1 225//1 226//1
f 218//1 220//1 226//1
f 218//1 226//1 227//1
f 218//1 227//1 228//1
f 218//1 228//1 229//1
f 218//1 229//1 230//1
f 230//1 231//1 232//1
f 230//1 232//1 233//1
f 230//1 233//1 234//1
f 230//1 234//1 235//1
f 230//1 235//1 218//1
f 236//1 237//1 238//1
f 236//1 238//1 239//1
f 236//1 239//1 240//1
f 236//1 240//1 241//1
f 236//1 241//1 242//1
f 242//1 243//1 236//1
