o SecondHand
v 0.01 0 -0.15
v 0.0095105651629515363 0.0030901699437494742 -0.15
v 0.0095105651629515363 0.0030901699437494742 0.9
v 0.01 0 0.9
v 0.0080901699437494739 0.0058778525229247315 -0.15
v 0.0080901699437494739 0.0058778525229247315 0.9
v 0.0058778525229247315 0.0080901699437494739 -0.15
v 0.0058778525229247315 0.0080901699437494739 0.9
v 0.0030901699437494747 0.0095105651629515363 -0.15
v 0.0030901699437494747 0.0095105651629515363 0.9
v 6.1230317691118863E-19 0.01 -0.15
v 6.1230317691118863E-19 0.01 0.9
v -0.0030901699437494734 0.0095105651629515363 -0.15
v -0.0030901699437494734 0.0095105651629515363 0.9
v -0.0058778525229247307 0.0080901699437494739 -0.15
v -0.0058778525229247307 0.0080901699437494739 0.9
v -0.0080901699437494739 0.0058778525229247324 -0.15
v -0.0080901699437494739 0.0058778525229247324 0.9
v -0.0095105651629515363 0.0030901699437494751 -0.15
v -0.0095105651629515363 0.0030901699437494751 0.9
v -0.01 1.2246063538223773E-18 -0.15
v -0.01 1.2246063538223773E-18 0.9
v -0.0095105651629515363 -0.0030901699437494773 -0.15
v -0.0095105651629515363 -0.0030901699437494773 0.9
v -0.0080901699437494756 -0.0058778525229247307 -0.15
v -0.0080901699437494756 -0.0058778525229247307 0.9
v -0.0058778525229247324 -0.0080901699437494739 -0.15
v -0.0058778525229247324 -0.0080901699437494739 0.9
v -0.0030901699437494755 -0.0095105651629515363 -0.15
v -0.0030901699437494755 -0.0095105651629515363 0.9
v -1.8369095307335658E-18 -0.01 -0.15
v -1.8369095307335658E-18 -0.01 0.9
v 0.0030901699437494725 -0.0095105651629515363 -0.15
v 0.0030901699437494725 -0.0095105651629515363 0.9
v 0.0058778525229247289 -0.0080901699437494756 -0.15
v 0.0058778525229247289 -0.0080901699437494756 0.9
v 0.0080901699437494739 -0.0058778525229247341 -0.15
v 0.0080901699437494739 -0.0058778525229247341 0.9
v 0.0095105651629515363 -0.0030901699437494764 -0.15
v 0.0095105651629515363 -0.0030901699437494764 0.9
vn 0.01 0 0
vn 0.0095105651629515363 0.0030901699437494742 0
vn 0.0080901699437494739 0.0058778525229247315 0
vn 0.0058778525229247315 0.0080901699437494739 0
vn 0.0030901699437494747 0.0095105651629515363 0
vn 6.1230317691118863E-19 0.01 0
vn -0.0030901699437494734 0.0095105651629515363 0
vn -0.0058778525229247307 0.0080901699437494739 0
vn -0.0080901699437494739 0.0058778525229247324 0
vn -0.0095105651629515363 0.0030901699437494751 0
vn -0.01 1.2246063538223773E-18 0
vn -0.0095105651629515363 -0.0030901699437494773 0
vn -0.0080901699437494756 -0.0058778525229247307 0
vn -0.0058778525229247324 -0.0080901699437494739 0
vn -0.0030901699437494755 -0.0095105651629515363 0
vn -1.8369095307335658E-18 -0.01 0
vn 0.0030901699437494725 -0.0095105651629515363 0
vn 0.0058778525229247289 -0.0080901699437494756 0
vn 0.0080901699437494739 -0.0058778525229247341 0
vn 0.0095105651629515363 -0.0030901699437494764 0
vn 0 0 -1
vn 0 0 1
g SecondHand
f 1//1 2//2 3//2 4//1
f 2//2 5//3 6//3 3//2
f 5//3 7//4 8//4 6//3
f 7//4 9//5 10//5 8//4
f 9//5 11//6 12//6 10//5
f 11//6 13//7 14//7 12//6
f 13//7 15//8 16//8 14//7
f 15//8 17//9 18//9 16//8
f 17//9 19//10 20//10 18//9
f 19//10 21//11 22//11 20//10
f 21//11 23//12 24//12 22//11
f 23//12 25//13 26//13 24//12
f 25//13 27//14 28//14 26//13
f 27//14 29//15 30//15 28//14
f 29//15 31//16 32//16 30//15
f 31//16 33//17 34//17 32//16
f 33//17 35//18 36//18 34//17
f 35//18 37//19 38//19 36//18
f 37//19 39//20 40//20 38//19
f 39//20 1//1 4//1 40//20
f 39//21 37//21 35//21 33//21 31//21 29//21 27//21 25//21 23//21 21//21 19//21 17//21 15//21 13//21 11//21 9//21 7//21 5//21 2//21 1//21
f 4//22 3//22 6//22 8//22 10//22 12//22 14//22 16//22 18//22 20//22 22//22 24//22 26//22 28//22 30//22 32//22 34//22 36//22 38//22 40//22
